<svg width="1024" height="1024" xmlns="http://www.w3.org/2000/svg" class="icon">
 <defs>
  <style type="text/css"/>
 </defs>
 <g>
  <title>background</title>
  <rect fill="none" id="canvas_background" height="402" width="582" y="-1" x="-1"/>
 </g>
 <g>
  <title>Layer 1</title>
  <path id="svg_1" fill="#ffffff" d="m512,64c-247.808,0 -448,200.192 -448,448s200.192,448 448,448s448,-200.192 448,-448s-200.192,-448 -448,-448zm0,844.8c-218.112,0 -396.8,-178.688 -396.8,-396.8s178.688,-396.8 396.8,-396.8s396.8,178.688 396.8,396.8s-178.688,396.8 -396.8,396.8z"/>
  <path id="svg_2" fill="#ffffff" d="m662.528,294.4l-219.136,67.072c-12.8,4.608 -22.528,15.872 -22.528,30.208l0,211.456c-15.872,-6.656 -36.864,-9.728 -59.392,-3.072c-43.008,9.728 -72.192,45.056 -64,78.336s49.664,51.2 92.672,41.472c38.4,-9.728 65.536,-38.4 65.536,-67.072l0,-216.576l193.536,-60.928l0,178.176c-15.872,-6.656 -36.864,-9.728 -59.392,-3.072c-43.008,9.728 -72.192,44.544 -64,78.336c8.192,33.792 49.664,51.2 92.672,41.472c38.4,-9.728 65.536,-36.864 65.536,-65.536l0,-290.816c2.56,-13.312 -10.24,-22.528 -21.504,-19.456z"/>
  <line stroke-linecap="undefined" stroke-linejoin="undefined" id="svg_3" y2="831.999725" x2="233.000233" y1="182.000268" x1="778.999777" stroke-width="52.5" stroke="#ffffff" fill="none"/>
 </g>
</svg>